<svg width="28" height="28" viewBox="0 0 28 28" fill="none" xmlns="http://www.w3.org/2000/svg">
<path fill-rule="evenodd" clip-rule="evenodd" d="M12.9562 3H15.0438C16.4068 2.99999 17.4908 2.99999 18.3654 3.07144C19.261 3.14462 20.0247 3.29768 20.7239 3.65396C21.8529 4.2292 22.7708 5.14708 23.346 6.27606C23.7023 6.9753 23.8554 7.73898 23.9286 8.63458C24 9.50916 24 10.5932 24 11.9562V20.6014C24 21.6083 24 22.4331 23.9419 23.0717C23.8844 23.704 23.7582 24.3536 23.3523 24.8664C22.7889 25.5782 21.9334 25.9966 21.0255 26.0044C20.3715 26.0099 19.7813 25.7107 19.2469 25.368C18.7071 25.0218 18.056 24.5153 17.2612 23.8971L15.3507 22.4111C14.575 21.8078 14.408 21.7019 14.2613 21.6622C14.0902 21.6159 13.9098 21.6159 13.7387 21.6622C13.5921 21.7019 13.425 21.8078 12.6493 22.4111L10.7387 23.8972C9.94392 24.5154 9.29285 25.0218 8.75308 25.368C8.21866 25.7107 7.62848 26.0099 6.97448 26.0044C6.06665 25.9966 5.21115 25.5782 4.6477 24.8664C4.24179 24.3536 4.11563 23.704 4.05809 23.0717C3.99997 22.4331 3.99998 21.6082 4 20.6013V11.9562C3.99999 10.5932 3.99999 9.50917 4.07144 8.63458C4.14462 7.73898 4.29768 6.9753 4.65396 6.27606C5.2292 5.14708 6.14709 4.2292 7.27606 3.65396C7.97531 3.29768 8.73898 3.14462 9.63458 3.07144C10.5092 2.99999 11.5932 2.99999 12.9562 3ZM9.79744 5.0648C9.02552 5.12787 8.55435 5.24729 8.18404 5.43597C7.43139 5.81947 6.81947 6.43139 6.43597 7.18404C6.24729 7.55435 6.12787 8.02552 6.0648 8.79744C6.00078 9.58104 6 10.5834 6 12V20.5509C6 21.6206 6.001 22.3535 6.04986 22.8904C6.10027 23.4443 6.19001 23.5924 6.2159 23.6251C6.40372 23.8624 6.68888 24.0019 6.99149 24.0044C7.03321 24.0048 7.20519 23.9847 7.67334 23.6845C8.12714 23.3934 8.70629 22.9442 9.55067 22.2875L11.4215 20.8324C11.463 20.8001 11.5041 20.768 11.5449 20.7362C12.1222 20.2857 12.6282 19.8909 13.216 19.7317C13.7294 19.5927 14.2706 19.5927 14.784 19.7317C15.3718 19.8909 15.8778 20.2857 16.4551 20.7362C16.4959 20.768 16.537 20.8001 16.5785 20.8324L18.4493 22.2875C19.2937 22.9442 19.8729 23.3934 20.3267 23.6845C20.7948 23.9847 20.9668 24.0048 21.0085 24.0044C21.3111 24.0019 21.5963 23.8624 21.7841 23.6251C21.81 23.5924 21.8997 23.4443 21.9501 22.8904C21.999 22.3535 22 21.6206 22 20.5509V12C22 10.5834 21.9992 9.58104 21.9352 8.79744C21.8721 8.02552 21.7527 7.55435 21.564 7.18404C21.1805 6.43139 20.5686 5.81947 19.816 5.43597C19.4457 5.24729 18.9745 5.12787 18.2026 5.0648C17.419 5.00078 16.4166 5 15 5H13C11.5834 5 10.581 5.00078 9.79744 5.0648Z" fill="#99A2AD"/>
</svg>
