<svg width="16" height="21" viewBox="0 0 16 21" fill="none" xmlns="http://www.w3.org/2000/svg">
<path d="M6.85388 1.67573V15.1157C6.85388 15.6128 7.25683 16.0157 7.75388 16.0157C8.25094 16.0157 8.65388 15.6128 8.65388 15.1157V1.67573C8.65388 1.17867 8.25094 0.775726 7.75388 0.775726C7.25683 0.775726 6.85388 1.17867 6.85388 1.67573Z" fill="white"/>
<path d="M2.34846 9.64008C1.97531 9.31171 1.40662 9.34801 1.07825 9.72116C0.749882 10.0943 0.786181 10.663 1.15933 10.9914L7.15933 16.2714C7.49926 16.5705 8.00852 16.5705 8.34846 16.2714L14.3485 10.9914C14.7216 10.663 14.7579 10.0943 14.4295 9.72116C14.1012 9.34801 13.5325 9.31171 13.1593 9.64008L7.75389 14.3969L2.34846 9.64008Z" fill="white"/>
<rect y="19.2" width="16" height="1.8" rx="0.9" fill="white"/>
</svg>
