<svg width="28" height="28" viewBox="0 0 28 28" fill="none" xmlns="http://www.w3.org/2000/svg">
<path fill-rule="evenodd" clip-rule="evenodd" d="M4.45143 6.02453C4.13585 6.00066 3.72845 6 3.11149 6H3C2.44772 6 2 5.55229 2 5C2 4.44772 2.44772 4 3 4H3.11149C3.1236 4 3.13567 4 3.1477 4C3.71879 3.99999 4.20228 3.99998 4.60225 4.03022C5.02318 4.06206 5.42354 4.13111 5.81476 4.30661C6.41723 4.57689 6.93096 5.01208 7.29661 5.56193C7.39093 5.70377 7.46892 5.8498 7.53497 6L22.3166 6C22.827 5.99998 23.275 5.99995 23.6389 6.03248C24.0188 6.06644 24.4307 6.14355 24.8091 6.38011C25.3417 6.713 25.7294 7.23414 25.8952 7.83987C26.0131 8.27032 25.9686 8.68695 25.8919 9.06065C25.8185 9.41853 25.6898 9.84762 25.5431 10.3365L24.142 15.0069C24.1275 15.0551 24.1132 15.1029 24.0991 15.1503C23.898 15.8244 23.7216 16.4158 23.3536 16.8753C23.0319 17.2769 22.6124 17.5891 22.1353 17.7817C21.5894 18.0022 20.9723 18.0012 20.2689 18.0002C20.2194 18.0001 20.1695 18 20.1191 18H11.1761C10.7242 18 10.3308 18 10.0031 17.9753C9.65458 17.9489 9.30873 17.8908 8.96633 17.7372C8.44992 17.5055 8.00958 17.1325 7.69618 16.6612C7.48837 16.3487 7.37421 16.0171 7.29091 15.6777C7.2126 15.3585 7.14793 14.9705 7.07365 14.5247L6.07067 8.5068C5.96925 7.89824 5.90162 7.49649 5.8262 7.18913C5.75377 6.89399 5.69008 6.7579 5.63122 6.6694C5.47452 6.43375 5.25435 6.24724 4.99614 6.13141C4.89917 6.0879 4.75446 6.04745 4.45143 6.02453ZM8.01378 8C8.0216 8.0468 8.0295 8.09424 8.03751 8.1423L9.04074 14.1617C9.12238 14.6515 9.17516 14.9642 9.23328 15.201C9.2884 15.4257 9.33233 15.5098 9.36156 15.5537C9.46603 15.7108 9.61281 15.8352 9.78495 15.9124C9.8331 15.934 9.9233 15.9635 10.1539 15.9809C10.3971 15.9993 10.7142 16 11.2108 16H20.1191C21.0616 16 21.25 15.9823 21.3864 15.9272C21.5454 15.863 21.6853 15.759 21.7925 15.6251C21.8844 15.5103 21.9555 15.3349 22.2263 14.4322L23.6153 9.80229C23.7777 9.26086 23.8795 8.91839 23.9327 8.65879C23.9753 8.4511 23.9678 8.37818 23.966 8.36707C23.9327 8.24661 23.8556 8.14295 23.7498 8.07651C23.7396 8.07157 23.6719 8.04341 23.4608 8.02454C23.1969 8.00094 22.8396 8 22.2743 8H8.01378ZM23.7512 8.07727L23.7498 8.07651L23.7512 8.07727ZM23.9656 8.36551L23.966 8.36707L23.9656 8.36551Z" fill="#2688EB"/>
<path d="M9 22C9 20.8954 9.89543 20 11 20C12.1046 20 13 20.8954 13 22C13 23.1046 12.1046 24 11 24C9.89543 24 9 23.1046 9 22Z" fill="#2688EB"/>
<path d="M18 22C18 20.8954 18.8954 20 20 20C21.1046 20 22 20.8954 22 22C22 23.1046 21.1046 24 20 24C18.8954 24 18 23.1046 18 22Z" fill="#2688EB"/>
</svg>
